<svg width="21" height="16" viewBox="0 0 21 16" fill="none" xmlns="http://www.w3.org/2000/svg">
<path d="M9.24001 11.648C9.24001 9.296 7.78399 7.784 5.26399 7.784C4.75999 7.784 4.368 7.896 4.088 8.064C4.2 5.488 6.55201 3.752 8.68001 3.416V0C5.15201 0.335999 0 2.856 0 10.36C0 13.328 1.90399 15.736 4.87199 15.736C7.50399 15.736 9.24001 13.832 9.24001 11.648ZM20.272 11.648C20.272 9.296 18.816 7.784 16.296 7.784C15.792 7.784 15.4 7.896 15.12 8.064C15.232 5.488 17.584 3.752 19.712 3.416V0C16.184 0.335999 11.032 2.856 11.032 10.36C11.032 13.328 12.936 15.736 15.904 15.736C18.536 15.736 20.272 13.832 20.272 11.648Z" fill="white"/>
</svg>
