<svg width="45" height="45" viewBox="0 0 45 45" fill="none" xmlns="http://www.w3.org/2000/svg">
<g clip-path="url(#clip0_97_27)">
<path d="M22.8028 44.3868C35.0599 44.3868 44.9962 34.4505 44.9962 22.1934C44.9962 9.93632 35.0599 0 22.8028 0C10.5457 0 0.609375 9.93632 0.609375 22.1934C0.609375 34.4505 10.5457 44.3868 22.8028 44.3868Z" fill="#101015"/>
<path d="M15.7316 31.0262L29.5077 17.25V26.6068C29.5059 26.7721 29.5369 26.9361 29.5989 27.0894C29.6609 27.2426 29.7527 27.3821 29.8689 27.4996C29.9852 27.6172 30.1236 27.7105 30.2762 27.7742C30.4288 27.8379 30.5924 27.8706 30.7578 27.8706C30.9231 27.8706 31.0868 27.8378 31.2394 27.7741C31.3919 27.7104 31.5303 27.6171 31.6466 27.4995C31.7628 27.3819 31.8546 27.2425 31.9165 27.0892C31.9785 26.9359 32.0094 26.7719 32.0076 26.6065V14.2322C32.0075 13.9007 31.8758 13.5829 31.6415 13.3485C31.4071 13.1141 31.0892 12.9824 30.7578 12.9824H18.3834C18.2192 12.9821 18.0566 13.0144 17.9048 13.0772C17.7531 13.14 17.6153 13.2322 17.4993 13.3485C17.3246 13.5234 17.2056 13.7461 17.1574 13.9885C17.1092 14.231 17.134 14.4822 17.2286 14.7106C17.3232 14.939 17.4834 15.1342 17.6889 15.2715C17.8944 15.4089 18.136 15.4822 18.3832 15.4822H27.74L13.9638 29.2584C13.7294 29.4928 13.5977 29.8108 13.5977 30.1423C13.5977 30.4738 13.7294 30.7917 13.9638 31.0262C14.1982 31.2606 14.5162 31.3923 14.8477 31.3923C15.1792 31.3923 15.4971 31.2606 15.7316 31.0262Z" fill="#ADADA4"/>
</g>
<defs>
<clipPath id="clip0_97_27">
<rect width="45" height="45" fill="white"/>
</clipPath>
</defs>
</svg>
