<svg width="300" height="360" viewBox="0 0 300 360" fill="none" xmlns="http://www.w3.org/2000/svg">
<mask id="mask0_2351_24581" style="mask-type:alpha" maskUnits="userSpaceOnUse" x="0" y="0" width="300" height="360">
<rect width="300" height="360" rx="20" fill="#E7DCBE"/>
</mask>
<g mask="url(#mask0_2351_24581)">
<rect width="300" height="360" rx="20" fill="#E7DCBE"/>
<g opacity="0.45">
<mask id="mask1_2351_24581" style="mask-type:luminance" maskUnits="userSpaceOnUse" x="149" y="225" width="30" height="7">
<path d="M174.17 225.615L149.576 231.222C150.807 230.94 152.142 231.05 153.438 231.62L178.034 226.014C176.736 225.443 175.402 225.336 174.17 225.615Z" fill="white"/>
</mask>
<g mask="url(#mask1_2351_24581)">
<path d="M153.442 231.612L178.031 226.008C177.242 225.67 176.41 225.483 175.622 225.471L151.034 231.074C151.822 231.087 152.632 231.268 153.442 231.612Z" fill="#1A7FA6"/>
<path d="M151.034 231.075L175.622 225.471C175.206 225.462 174.801 225.496 174.407 225.571L149.819 231.175C150.212 231.099 150.617 231.066 151.034 231.075Z" fill="#197BA1"/>
<path d="M149.82 231.175L174.408 225.571C174.328 225.58 174.246 225.596 174.162 225.618L149.574 231.222C149.658 231.199 149.74 231.184 149.82 231.175Z" fill="#18779C"/>
</g>
<path d="M197.2 250.834L221.788 245.23L178.03 226.009L153.441 231.612L197.2 250.834Z" fill="#1C88B2"/>
<path d="M214.928 372.765L239.538 367.167L253.34 317.686L228.752 323.29L214.928 372.765Z" fill="#146281"/>
<mask id="mask2_2351_24581" style="mask-type:luminance" maskUnits="userSpaceOnUse" x="215" y="190" width="30" height="7">
<path d="M240.526 190.737L215.933 196.342C217.165 196.063 218.499 196.17 219.795 196.739L244.39 191.135C243.092 190.565 241.759 190.456 240.526 190.737Z" fill="white"/>
</mask>
<g mask="url(#mask2_2351_24581)">
<path d="M219.79 196.75L244.384 191.125C243.595 190.786 242.785 190.605 241.976 190.587L217.387 196.191C218.175 196.203 218.985 196.384 219.79 196.75Z" fill="#1A7FA6"/>
<path d="M217.388 196.191L241.977 190.587C241.575 190.582 241.17 190.616 240.762 190.687L216.173 196.291C216.567 196.216 216.972 196.182 217.388 196.191Z" fill="#197BA1"/>
<path d="M216.172 196.291L240.761 190.687C240.681 190.696 240.599 190.711 240.515 190.734L215.926 196.338C216.01 196.315 216.092 196.299 216.172 196.291Z" fill="#18779C"/>
</g>
<mask id="mask3_2351_24581" style="mask-type:luminance" maskUnits="userSpaceOnUse" x="276" y="332" width="30" height="11">
<path d="M276.373 342.904L300.966 337.3C303.221 336.785 305.138 334.968 305.889 332.282L281.292 337.889C280.544 340.573 278.625 342.391 276.373 342.904Z" fill="white"/>
</mask>
<g mask="url(#mask3_2351_24581)">
<path d="M276.38 342.902L300.968 337.298C303.228 336.793 305.14 334.957 305.893 332.283L281.304 337.887C280.546 340.583 278.618 342.391 276.38 342.902Z" fill="#146483"/>
</g>
<path d="M252.576 211.138L277.186 205.541L244.385 191.124L219.79 196.749L252.576 211.138Z" fill="#1C88B2"/>
<path d="M252.576 211.138L277.186 205.541L244.385 191.124L219.79 196.749L252.576 211.138Z" fill="#1C88B2"/>
<path d="M243.342 271.098L267.93 265.495L281.755 216.02L257.145 221.617L243.342 271.098Z" fill="#146281"/>
<mask id="mask4_2351_24581" style="mask-type:luminance" maskUnits="userSpaceOnUse" x="252" y="205" width="31" height="17">
<path d="M257.152 221.626L281.747 216.022C282.907 211.868 280.85 207.151 277.181 205.537L252.585 211.144C256.257 212.756 258.313 217.472 257.152 221.626Z" fill="white"/>
</mask>
<g mask="url(#mask4_2351_24581)">
<path d="M257.145 221.616L281.755 216.018C282.04 215.005 282.131 213.937 282.047 212.912L257.437 218.51C257.521 219.534 257.43 220.603 257.145 221.616Z" fill="#146483"/>
<path d="M257.436 218.51L282.046 212.913C282.005 212.451 281.937 212.005 281.841 211.575L257.252 217.179C257.348 217.609 257.41 218.053 257.436 218.51Z" fill="#156888"/>
<path d="M257.253 217.178L281.842 211.574C281.762 211.195 281.655 210.831 281.52 210.483L256.932 216.087C257.063 216.449 257.17 216.813 257.253 217.178Z" fill="#166C8D"/>
<path d="M256.933 216.087L281.521 210.483C281.415 210.143 281.284 209.811 281.127 209.488L256.532 215.113C256.693 215.422 256.827 215.747 256.933 216.087Z" fill="#176F92"/>
<path d="M256.531 215.113L281.126 209.488C280.965 209.179 280.794 208.875 280.615 208.576L256.026 214.18C256.206 214.479 256.374 214.79 256.531 215.113Z" fill="#177397"/>
<path d="M256.026 214.181L280.615 208.577C280.41 208.256 280.193 207.954 279.962 207.672L255.373 213.275C255.604 213.558 255.822 213.859 256.026 214.181Z" fill="#18779C"/>
<path d="M255.372 213.275L279.961 207.671C279.67 207.326 279.357 207.005 279.021 206.709L254.411 212.307C254.761 212.607 255.081 212.93 255.372 213.275Z" fill="#197BA1"/>
<path d="M254.412 212.306L279.023 206.708C278.461 206.224 277.853 205.821 277.187 205.54L252.577 211.138C253.258 211.446 253.872 211.828 254.412 212.306Z" fill="#1A7FA6"/>
</g>
<path d="M287.078 290.313L311.688 284.715L267.93 265.494L243.341 271.098L287.078 290.313Z" fill="#1C88B2"/>
<path d="M281.304 337.887L305.893 332.283L316.257 295.193L291.647 300.79L281.304 337.887Z" fill="#146281"/>
<path d="M219.791 196.75C216.127 195.138 212.169 197.213 211.004 201.353L197.202 250.834L153.443 231.613C149.778 230 145.815 232.097 144.65 236.238L134.286 273.328C133.143 277.474 135.19 282.193 138.854 283.805L182.613 303.027L168.789 352.502C167.645 356.648 169.692 361.366 173.357 362.979L206.158 377.396C209.829 378.987 213.787 376.912 214.93 372.765L228.754 323.29L272.513 342.512C276.177 344.124 280.135 342.049 281.306 337.887L291.648 300.791C292.813 296.65 290.766 291.932 287.08 290.313L243.343 271.098L257.145 221.617C258.31 217.477 256.263 212.758 252.577 211.14L219.791 196.75Z" fill="white"/>
<mask id="mask5_2351_24581" style="mask-type:luminance" maskUnits="userSpaceOnUse" x="287" y="284" width="30" height="17">
<path d="M291.652 300.804L316.246 295.197C317.404 291.048 315.35 286.33 311.678 284.718L287.085 290.322C290.754 291.936 292.81 296.653 291.652 300.804Z" fill="white"/>
</mask>
<g mask="url(#mask5_2351_24581)">
<path d="M291.646 300.792L316.256 295.194C316.519 294.174 316.632 293.112 316.548 292.088L291.938 297.685C292.016 298.731 291.931 299.778 291.646 300.792Z" fill="#146483"/>
<path d="M291.937 297.685L316.547 292.087C316.506 291.626 316.438 291.18 316.342 290.75L291.753 296.354C291.845 296.798 291.907 297.242 291.937 297.685Z" fill="#156888"/>
<path d="M291.754 296.353L316.343 290.749C316.259 290.384 316.152 290.021 316.021 289.658L291.433 295.262C291.564 295.624 291.671 295.988 291.754 296.353Z" fill="#166C8D"/>
<path d="M291.433 295.262L316.022 289.658C315.916 289.318 315.782 288.993 315.621 288.684L291.032 294.288C291.175 294.607 291.309 294.932 291.433 295.262Z" fill="#176F92"/>
<path d="M291.032 294.289L315.621 288.685C315.464 288.361 315.295 288.05 315.116 287.752L290.527 293.355C290.707 293.654 290.875 293.965 291.032 294.289Z" fill="#177397"/>
<path d="M290.527 293.355L315.116 287.752C314.911 287.43 314.694 287.129 314.463 286.846L289.874 292.45C290.101 292.747 290.319 293.049 290.527 293.355Z" fill="#18779C"/>
<path d="M289.873 292.45L314.462 286.846C314.171 286.501 313.858 286.18 313.522 285.884L288.912 291.482C289.262 291.782 289.582 292.105 289.873 292.45Z" fill="#197BA1"/>
<path d="M288.913 291.481L313.523 285.884C312.962 285.4 312.348 285.018 311.688 284.716L287.078 290.313C287.759 290.621 288.373 291.004 288.913 291.481Z" fill="#1A7FA6"/>
</g>
</g>
</g>
</svg>
