<svg width="6" height="26" viewBox="0 0 6 26" fill="none" xmlns="http://www.w3.org/2000/svg">
<path d="M3.22309 6.23915C3.77248 6.23915 4.30954 6.07624 4.76634 5.77101C5.22314 5.46578 5.57918 5.03195 5.78942 4.52438C5.99967 4.01681 6.05468 3.45829 5.9475 2.91945C5.84031 2.38062 5.57576 1.88567 5.18728 1.49719C4.7988 1.10871 4.30385 0.84415 3.76501 0.736969C3.22617 0.629788 2.66765 0.684797 2.16008 0.895041C1.65251 1.10528 1.21868 1.46132 0.913454 1.91812C0.608228 2.37493 0.445314 2.91198 0.445314 3.46137C0.445314 4.19808 0.737972 4.90462 1.25891 5.42556C1.77984 5.94649 2.48638 6.23915 3.22309 6.23915ZM3.22309 20.128C2.6737 20.128 2.13664 20.291 1.67984 20.5962C1.22304 20.9014 0.867003 21.3352 0.656759 21.8428C0.446516 22.3504 0.391507 22.9089 0.498688 23.4477C0.605869 23.9866 0.870428 24.4815 1.25891 24.87C1.64739 25.2585 2.14234 25.523 2.68117 25.6302C3.22001 25.7374 3.77853 25.6824 4.2861 25.4721C4.79367 25.2619 5.2275 24.9059 5.53273 24.4491C5.83795 23.9923 6.00087 23.4552 6.00087 22.9058C6.00087 22.1691 5.70821 21.4626 5.18728 20.9416C4.66634 20.4207 3.9598 20.128 3.22309 20.128ZM3.22309 10.4058C2.6737 10.4058 2.13664 10.5687 1.67984 10.874C1.22304 11.1792 0.867003 11.613 0.656759 12.1206C0.446516 12.6282 0.391507 13.1867 0.498688 13.7255C0.605869 14.2643 0.870428 14.7593 1.25891 15.1478C1.64739 15.5363 2.14234 15.8008 2.68117 15.908C3.22001 16.0152 3.77853 15.9602 4.2861 15.7499C4.79367 15.5397 5.2275 15.1836 5.53273 14.7268C5.83795 14.27 6.00087 13.733 6.00087 13.1836C6.00087 12.4469 5.70821 11.7403 5.18728 11.2194C4.66634 10.6985 3.9598 10.4058 3.22309 10.4058Z" fill="white"/>
</svg>
