<svg width="18" height="18" viewBox="0 0 18 18" fill="none" xmlns="http://www.w3.org/2000/svg">
<g clip-path="url(#clip0_3307_67)">
<path d="M9 0C11.3861 0.00262044 13.6738 0.951674 15.3611 2.63893C17.0483 4.32619 17.9974 6.61386 18 9V16.5897C17.9995 16.9636 17.8508 17.322 17.5864 17.5864C17.322 17.8508 16.9636 17.9995 16.5897 18H9C6.61305 18 4.32387 17.0518 2.63604 15.364C0.948211 13.6761 -7.15256e-07 11.3869 -7.15256e-07 9C-7.15256e-07 6.61305 0.948211 4.32387 2.63604 2.63604C4.32387 0.948212 6.61305 0 9 0ZM9 16.56H16.56V9C16.56 7.50477 16.1166 6.04312 15.2859 4.79989C14.4552 3.55665 13.2745 2.58767 11.8931 2.01547C10.5117 1.44327 8.99161 1.29356 7.52512 1.58526C6.05862 1.87697 4.71156 2.59699 3.65427 3.65427C2.59699 4.71156 1.87697 6.05862 1.58526 7.52512C1.29356 8.99161 1.44327 10.5117 2.01547 11.8931C2.58767 13.2745 3.55665 14.4552 4.79989 15.2859C6.04312 16.1166 7.50477 16.56 9 16.56Z" fill="black"/>
</g>
<defs>
<clipPath id="clip0_3307_67">
<rect width="18" height="18" fill="white" transform="matrix(-1 0 0 1 18 0)"/>
</clipPath>
</defs>
</svg>
