<svg width="15" height="15" viewBox="0 0 15 15" fill="none" xmlns="http://www.w3.org/2000/svg">
<g clip-path="url(#clip0_3304_45)">
<path d="M14.837 14.0509L11.36 10.5746C12.3678 9.36472 12.8703 7.81287 12.7631 6.24189C12.6558 4.67091 11.947 3.20176 10.7842 2.14006C9.6213 1.07835 8.09387 0.505843 6.51964 0.54162C4.94541 0.577397 3.44558 1.21871 2.33214 2.33214C1.21871 3.44558 0.577397 4.94541 0.54162 6.51964C0.505843 8.09387 1.07835 9.6213 2.14006 10.7842C3.20176 11.947 4.67091 12.6558 6.24189 12.7631C7.81287 12.8703 9.36472 12.3678 10.5746 11.36L14.0509 14.837C14.1026 14.8887 14.1638 14.9296 14.2313 14.9575C14.2987 14.9855 14.371 14.9998 14.444 14.9998C14.517 14.9998 14.5893 14.9855 14.6567 14.9575C14.7241 14.9296 14.7854 14.8887 14.837 14.837C14.8887 14.7854 14.9296 14.7241 14.9575 14.6567C14.9855 14.5893 14.9998 14.517 14.9998 14.444C14.9998 14.371 14.9855 14.2987 14.9575 14.2313C14.9296 14.1638 14.8887 14.1026 14.837 14.0509ZM1.66648 6.66637C1.66648 5.67749 1.95972 4.71081 2.50911 3.88858C3.05851 3.06635 3.83938 2.4255 4.753 2.04707C5.66661 1.66864 6.67192 1.56963 7.6418 1.76255C8.61169 1.95547 9.50259 2.43166 10.2018 3.13091C10.9011 3.83016 11.3773 4.72106 11.5702 5.69094C11.7631 6.66083 11.6641 7.66614 11.2857 8.57975C10.9072 9.49336 10.2664 10.2742 9.44417 10.8236C8.62194 11.373 7.65526 11.6663 6.66637 11.6663C5.34077 11.6648 4.06988 11.1376 3.13254 10.2002C2.19519 9.26287 1.66795 7.99198 1.66648 6.66637Z" fill="#A2A1A5"/>
</g>
<defs>
<clipPath id="clip0_3304_45">
<rect width="15" height="15" fill="white"/>
</clipPath>
</defs>
</svg>
