<svg width="46" height="46" viewBox="0 0 46 46" fill="none" xmlns="http://www.w3.org/2000/svg">
<circle cx="22.9434" cy="22.877" r="22.1934" fill="#F1F0E1"/>
<path d="M15.8721 31.7097L29.6483 17.9335V27.2903C29.6464 27.4556 29.6774 27.6196 29.7394 27.7729C29.8014 27.9261 29.8932 28.0656 30.0095 28.1831C30.1257 28.3007 30.2641 28.394 30.4167 28.4577C30.5693 28.5214 30.733 28.5541 30.8983 28.5541C31.0636 28.5541 31.2273 28.5213 31.3799 28.4576C31.5324 28.3939 31.6708 28.3005 31.7871 28.183C31.9033 28.0654 31.9951 27.9259 32.0571 27.7727C32.119 27.6194 32.15 27.4554 32.1481 27.29L32.1481 14.9157C32.1481 14.5842 32.0164 14.2664 31.782 14.032C31.5476 13.7976 31.2298 13.6659 30.8983 13.6659L18.524 13.6659C18.3597 13.6656 18.1971 13.6979 18.0453 13.7607C17.8936 13.8235 17.7558 13.9157 17.6399 14.032C17.4651 14.2069 17.3461 14.4296 17.2979 14.672C17.2497 14.9144 17.2745 15.1657 17.3691 15.3941C17.4637 15.6225 17.6239 15.8177 17.8294 15.955C18.0349 16.0924 18.2765 16.1657 18.5237 16.1657L27.8805 16.1657L14.1043 29.9419C13.8699 30.1763 13.7382 30.4943 13.7382 30.8258C13.7382 31.1573 13.8699 31.4752 14.1043 31.7097C14.3387 31.9441 14.6567 32.0758 14.9882 32.0758C15.3197 32.0758 15.6377 31.9441 15.8721 31.7097Z" fill="#1F1F22"/>
</svg>
